# AST/ASF file generated using VICON BodyLanguage
# -----------------------------------------------
:version 1.10
:name VICON
:units
  mass 1.0
  length 0.45
  angle deg
:documentation
   .ast/.asf automatically generated from VICON data using
   VICON BodyBuilder and BodyLanguage model FoxedUp or BRILLIANT.MOD
:root
   order TX TY TZ RX RY RZ
   axis XYZ
   position 0 0 0  
   orientation 0 0 0 
:bonedata
  begin
     id 1 
     name lhipjoint
     direction 0.541323 -0.757556 0.364798 
     length 2.47576 
     axis 0 0 0  XYZ
  end
  begin
     id 2 
     name lfemur
     direction 0.34202 -0.939693 0  
     length 7.46493  
     axis 0 0 20  XYZ
    dof rx ry rz
    limits (-160.0 20.0)
           (-70.0 70.0)
           (-60.0 70.0)
  end
  begin
     id 3 
     name ltibia
     direction 0.34202 -0.939693 0   
     length 7.73805   
     axis 0 0 20   XYZ
    dof rx
    limits (-10.0 170.0)
  end
  begin
     id 4 
     name lfoot
     direction 0.107174 -0.294458 0.949636   
     length 2.25864   
     axis -90 7.62852e-016 20   XYZ
    dof rx rz
    limits (-45.0 90.0)
           (-70.0 20.0)
  end
  begin
     id 5 
     name ltoes
     direction 1.53606e-011 -4.21934e-011 1   
     length 1.12451   
     axis -90 7.62852e-016 20   XYZ
    dof rx
    limits (-90.0 20.0)
  end
  begin
     id 6 
     name rhipjoint
     direction -0.524745 -0.766967 0.36933   
     length 2.44538  
     axis 0 0 0  XYZ 
  end
  begin
     id 7 
     name rfemur
     direction -0.34202 -0.939693 0   
     length 7.61604   
     axis 0 0 -20   XYZ
    dof rx ry rz
    limits (-160.0 20.0)
           (-70.0 70.0)
           (-70.0 60.0)
  end
  begin
     id 8 
     name rtibia
     direction -0.34202 -0.939693 0   
     length 7.61056   
     axis 0 0 -20   XYZ
    dof rx
    limits (-10.0 170.0)
 end
 begin
     id 9 
     name rfoot
     direction -0.12616 -0.346623 0.929482   
     length 2.46372  
     axis -90 -7.62852e-016 -20   XYZ
    dof rx rz
    limits (-45.0 90.0)
           (-20.0 70.0)
  end
  begin
     id 10 
     name rtoes
     direction -1.53531e-011 -4.22004e-011 1   
     length 1.21611   
     axis -90 -7.62852e-016 -20   XYZ
    dof rx
    limits (-90.0 20.0)
  end
  begin
     id 11 
     name lowerback
     direction -0.000778023 0.997293 -0.0735223   
     length 2.06139   
     axis 0 0 0   XYZ
    dof rx ry rz
    limits (-20.0 45.0)
           (-30.0 30.0)
           (-30.0 30.0)
  end
  begin
     id 12 
     name upperback
     direction 0.0222598 0.999722 -0.0078355   
     length 2.06383   
     axis 0 0 0   XYZ
    dof rx ry rz
    limits (-20.0 45.0)
           (-30.0 30.0)
           (-30.0 30.0)
  end
  begin
     id 13 
     name thorax
     direction 0.0219654 0.999405 0.0265994   
     length 2.07163   
     axis 0 0 0   XYZ
    dof rx ry rz
    limits (-20.0 45.0)
           (-30.0 30.0)
           (-30.0 30.0)
  end
  begin
     id 14 
     name lowerneck
     direction 0.0213282 0.988147 0.15202   
     length 1.75969   
     axis 0 0 0   XYZ
    dof rx ry rz
    limits (-20.0 45.0)
           (-30.0 30.0)
           (-30.0 30.0)
  end
  begin
     id 15 
     name upperneck
     direction -0.0546456 0.982624 -0.177379   
     length 1.79244   
     axis 0 0 0   XYZ
    dof rx ry rz
    limits (-20.0 45.0)
           (-30.0 30.0)
           (-30.0 30.0)
  end
  begin
     id 16
     name head
     direction -0.0199987 0.996855 -0.076686  
     length 1.80555  
     axis 0 0 0   XYZ
    dof rx ry rz
    limits (-20.0 45.0)
           (-30.0 30.0)
           (-30.0 30.0)
  end
  begin
     id 17 
     name lclavicle
     direction 0.929565 0.363219 -0.063096  
     length 3.55722  
     axis 0 0 0   XYZ
    dof ry rz
    limits (-20.0 10.0)
           (0.0 20.0)
  end
  begin
     id 18 
     name lhumerus
     direction 1 -4.48993e-011 -2.36203e-027   
     length 4.92785   
     axis 180 -30 -90   XYZ
    dof rx ry rz
    limits (-60.0 90.0)
           (-90.0 90.0)
           (-90.0 90.0)
  end
  begin
     id 19
     name lradius
     direction 1 -4.48947e-011 2.02997e-027   
     length 3.44052   
     axis 180 -30 -90   XYZ
    dof rx
    limits (-10.0 170.0)
  end
  begin
     id 20
     name lwrist
     direction 1 -4.48962e-011 1.45991e-027   
     length 1.72026   
     axis 1.49639e-024 90 90   XYZ
    dof ry
    limits (-180.0 0.0)
 end
  begin
     id 21 
     name lhand
     direction 1 -4.48984e-011 2.91906e-027   
     length 0.654326   
     axis -1.863e-015 90 90   XYZ
    dof rx rz
    limits (-90.0 90.0)
           (-45.0 45.0)
  end
  begin
     id 22 
     name lfingers
     direction 1 -4.48961e-011 5.83968e-027   
     length 0.527534   
     axis -3.72598e-015 90 90   XYZ
    dof rx
    limits (0.0 90.0)
  end
  begin
     id 23
     name lthumb
     direction 0.707107 -6.34963e-011 0.707107   
     length 0.757437   
     axis -90 45 -6.68868e-015   XYZ
    dof rx rz
    limits (-45.0 45.0)
           (-45.0 45.0)
  end
  begin
     id 24 
     name rclavicle
     direction -0.902944 0.422599 -0.0781198   
     length 3.54432  
     axis 0 0 0   XYZ 
    dof ry rz
    limits (-10.0 20.0)
           (-20.0 0.0)
  end
  begin
     id 25 
     name rhumerus
     direction -1 -4.48953e-011 -4.75835e-028  
     length 5.09181   
     axis 180 30 90   XYZ
    dof rx ry rz
    limits (-90.0 60.0)
           (-90.0 90.0)
           (-90.0 90.0)
  end
  begin
     id 26 
     name rradius
     direction -1 -4.48986e-011 -3.25889e-027   
     length 3.49865   
     axis 180 30 90   XYZ
    dof rx
    limits (-10.0 170.0)
  end
  begin
     id 27 
     name rwrist
     direction -1 -4.48963e-011 1.45989e-027   
     length 1.74933   
     axis 1.49639e-024 -90 -90   XYZ
    dof ry
    limits (-180.0 0.0)
  end
  begin
     id 28
     name rhand
     direction -1 -4.49003e-011 2.91844e-027   
     length 0.66641   
     axis -1.863e-015 -90 -90   XYZ
    dof rx rz
    limits (-90.0 90.0)
           (-45.0 45.0)
  end
  begin
     id 29
     name rfingers
     direction -1 -4.48973e-011 5.83886e-027   
     length 0.537277   
     axis -3.72598e-015 -90 -90   XYZ
    dof rx
    limits (0.0 90.0)
  end
  begin
     id 30
     name rthumb
     direction -0.707107 -6.34976e-011 0.707107   
     length 0.771425   
     axis -90 -45 6.68868e-015   XYZ
    dof rx rz
    limits (-45.0 45.0)
           (-45.0 45.0)
  end
:hierarchy
  begin
    root lhipjoint rhipjoint lowerback
    lhipjoint lfemur
    lfemur ltibia
    ltibia lfoot
    lfoot ltoes
    rhipjoint rfemur
    rfemur rtibia
    rtibia rfoot
    rfoot rtoes
    lowerback upperback
    upperback thorax
    thorax lowerneck lclavicle rclavicle
    lowerneck upperneck
    upperneck head
    lclavicle lhumerus
    lhumerus lradius
    lradius lwrist
    lwrist lhand lthumb
    lhand lfingers
    rclavicle rhumerus
    rhumerus rradius
    rradius rwrist
    rwrist rhand rthumb
    rhand rfingers
  end

#!OML:ASF H:\LiuWeirdWalks\Patient Classification 1\Patient 1\Session 1\male.ASF
:FULLY-SPECIFIED
:DEGREES
101
root -1.11569 17.6499 -31.2416 4.67857 -0.530876 -0.959871
lowerback 2.98415 -1.33129 -0.497834
upperback -1.30904 -1.72123 2.76137
thorax -2.92048 -0.822318 3.21794
lowerneck -16.0624 2.54088 5.14522
upperneck 9.13841 3.05986 -5.8922
head 5.54471 1.23747 -2.41076
rclavicle -3.42904e-015 1.43125e-014
rhumerus -34.6758 -7.3821 -79.02
rradius 30.5728
rwrist -7.813
rhand -15.0967 -0.801021
rfingers 7.12502
rthumb 11.0715 -30.489
lclavicle -3.42904e-015 1.43125e-014
lhumerus -31.7871 -0.139401 87.3011
lradius 32.4709
lwrist 9.70804
lhand -10.7283 0.455384
lfingers 7.12502
lthumb 15.2822 29.8708
rfemur -12.8268 1.03345 22.3268
rtibia 36.1276
rfoot -22.5095 -18.5994
rtoes -1.91246
lfemur -12.9146 0.948707 -17.0177
ltibia 34.3332
lfoot -16.4928 16.2964
ltoes -10.6829
102
root -1.13178 17.6406 -31.2313 4.65983 -0.626595 -1.0738
lowerback 3.10222 -1.36399 -0.392477
upperback -1.33137 -1.75701 2.82175
thorax -3.00931 -0.840477 3.22724
lowerneck -15.956 2.60421 5.16615
upperneck 9.05804 3.1457 -5.92021
head 5.50778 1.28007 -2.41511
rclavicle -8.49804e-015 1.66979e-014
rhumerus -34.8009 -7.2184 -79.0249
rradius 30.5586
rwrist -7.83395
rhand -15.1202 -0.87208
rfingers 7.12502
rthumb 11.0488 -30.5613
lclavicle -8.49804e-015 1.66979e-014
lhumerus -31.8047 -0.0276275 87.3567
lradius 32.6174
lwrist 9.81055
lhand -10.6693 0.375094
lfingers 7.12502
lthumb 15.3391 29.7862
rfemur -12.7721 1.06334 22.5036
rtibia 36.1316
rfoot -22.5408 -18.5388
rtoes -1.78687
lfemur -13.1276 1.13161 -16.831
ltibia 34.8877
lfoot -16.6157 16.2627
ltoes -10.8848
103
root -1.14831 17.6305 -31.2212 4.64015 -0.719878 -1.23118
lowerback 3.21683 -1.3474 -0.217469
upperback -1.32247 -1.7251 2.84434
thorax -3.07099 -0.827157 3.15375
lowerneck -15.9376 2.602 5.20857
upperneck 8.99413 3.12661 -5.88203
head 5.48346 1.27576 -2.41162
rclavicle 3.18055e-015 -2.46493e-014
rhumerus -34.9134 -7.26559 -79.0201
rradius 30.5389
rwrist -7.81182
rhand -15.1274 -0.883878
rfingers 7.12502
rthumb 11.0419 -30.5734
lclavicle 3.18055e-015 -2.46493e-014
lhumerus -31.7381 -0.127649 87.4135
lradius 32.7636
lwrist 9.95486
lhand -10.5529 0.310297
lfingers 7.12502
lthumb 15.4511 29.7128
rfemur -12.7123 1.10306 22.7347
rtibia 36.1278
rfoot -22.5551 -18.5007
rtoes -1.6149
lfemur -13.3932 1.34598 -16.5925
ltibia 35.5419
lfoot -16.7473 16.2086
ltoes -11.1055
104
root -1.16504 17.6194 -31.2116 4.61189 -0.808047 -1.43793
lowerback 3.34829 -1.30545 0.0326238
upperback -1.28895 -1.65615 2.84804
thorax -3.1212 -0.79737 3.01618
lowerneck -15.971 2.55093 5.2259
upperneck 8.91598 3.03439 -5.768
head 5.45714 1.23971 -2.38664
rclavicle -2.09718e-014 1.90833e-014
rhumerus -34.9977 -7.44913 -79.0108
rradius 30.4984
rwrist -7.73593
rhand -15.1045 -0.820416
rfingers 7.12502
rthumb 11.0639 -30.5088
lclavicle -2.09718e-014 1.90833e-014
lhumerus -31.611 -0.353651 87.4609
lradius 32.9128
lwrist 10.0932
lhand -10.4097 0.24458
lfingers 7.12502
lthumb 15.5891 29.6364
rfemur -12.6375 1.14932 23.0252
rtibia 36.1136
rfoot -22.5424 -18.4821
rtoes -1.41833
lfemur -13.7103 1.5863 -16.2973
ltibia 36.2997
lfoot -16.863 16.1455
ltoes -11.3704
105
root -1.18184 17.6077 -31.2019 4.56392 -0.879821 -1.67474
lowerback 3.48952 -1.24502 0.330278
upperback -1.24278 -1.56013 2.83513
thorax -3.16628 -0.755359 2.83285
lowerneck -15.9814 2.43472 5.18463
upperneck 8.81799 2.85457 -5.5522
head 5.41344 1.16676 -2.32821
rclavicle 6.65929e-015 -7.95139e-015
rhumerus -35.098 -7.7342 -78.991
rradius 30.4559
rwrist -7.633
rhand -15.0713 -0.72353
rfingers 7.12502
rthumb 11.096 -30.4102
lclavicle 6.65929e-015 -7.95139e-015
lhumerus -31.4647 -0.686014 87.5036
lradius 33.0783
lwrist 10.2627
lhand -10.2143 0.251873
lfingers 7.12502
lthumb 15.7773 29.6289
rfemur -12.5291 1.18605 23.3532
rtibia 36.0868
rfoot -22.5239 -18.4757
rtoes -1.20609
lfemur -14.0652 1.84768 -15.9665
ltibia 37.1654
lfoot -16.9641 16.0627
ltoes -11.6717
106
root -1.19847 17.596 -31.1923 4.5056 -0.927629 -1.92456
lowerback 3.63665 -1.21731 0.635067
upperback -1.18199 -1.506 2.85311
thorax -3.19634 -0.734278 2.67969
lowerneck -16.0173 2.3559 5.13007
upperneck 8.72955 2.73209 -5.37158
head 5.38093 1.11815 -2.27322
rclavicle 3.01656e-014 1.82882e-014
rhumerus -35.146 -7.94137 -78.9636
rradius 30.3886
rwrist -7.51696
rhand -15.018 -0.595231
rfingers 7.12502
rthumb 11.1474 -30.2791
lclavicle 3.01656e-014 1.82882e-014
lhumerus -31.3109 -0.915088 87.5437
lradius 33.2657
lwrist 10.3925
lhand -10.0315 0.266609
lfingers 7.12502
lthumb 15.9533 29.6296
rfemur -12.3985 1.19484 23.6961
rtibia 36.047
rfoot -22.51 -18.4632
rtoes -0.983208
lfemur -14.4735 2.13718 -15.62
ltibia 38.1403
lfoot -17.0354 15.9505
ltoes -12.0027
107
root -1.21465 17.5842 -31.1829 4.44631 -0.957069 -2.17849
lowerback 3.79747 -1.20746 0.944592
upperback -1.12026 -1.47381 2.88749
thorax -3.23159 -0.724008 2.54251
lowerneck -16.0789 2.28111 5.03659
upperneck 8.67191 2.62228 -5.1794
head 5.36259 1.0747 -2.20703
rclavicle 1.61513e-014 -1.27222e-014
rhumerus -35.1786 -8.08567 -78.9387
rradius 30.3303
rwrist -7.44936
rhand -14.9965 -0.52845
rfingers 7.12502
rthumb 11.1681 -30.2112
lclavicle 1.61513e-014 -1.27222e-014
lhumerus -31.1485 -1.09138 87.583
lradius 33.4805
lwrist 10.5902
lhand -9.81949 0.353667
lfingers 7.12502
lthumb 16.1575 29.7002
rfemur -12.2587 1.16563 24.04
rtibia 35.9955
rfoot -22.5013 -18.4326
rtoes -0.775229
lfemur -14.9524 2.45912 -15.2694
ltibia 39.2268
lfoot -17.0467 15.8136
ltoes -12.3852
108
root -1.23045 17.5729 -31.1733 4.38229 -0.946964 -2.42601
lowerback 3.98375 -1.28491 1.20554
upperback -1.08944 -1.55549 3.00443
thorax -3.30582 -0.768518 2.52708
lowerneck -16.0274 2.34447 4.98793
upperneck 8.55331 2.71461 -5.16749
head 5.32099 1.11993 -2.18663
rclavicle -1.44119e-015 7.95139e-015
rhumerus -35.2116 -7.90081 -78.9084
rradius 30.2812
rwrist -7.45701
rhand -14.9813 -0.518812
rfingers 7.12502
rthumb 11.1827 -30.2008
lclavicle -1.44119e-015 7.95139e-015
lhumerus -31.0881 -0.955331 87.6347
lradius 33.7297
lwrist 10.7245
lhand -9.64646 0.369941
lfingers 7.12502
lthumb 16.3241 29.7029
rfemur -12.1045 1.08675 24.3754
rtibia 35.9341
rfoot -22.5083 -18.3894
rtoes -0.589566
lfemur -15.4997 2.80634 -14.9247
ltibia 40.4217
lfoot -16.9739 15.644
ltoes -12.7849
109
root -1.2459 17.5622 -31.1635 4.32917 -0.925424 -2.67054
lowerback 4.17564 -1.59606 1.31912
upperback -1.07351 -1.94749 3.37811
thorax -3.37573 -0.962331 2.88325
lowerneck -15.9131 2.72857 4.7881
upperneck 8.38529 3.30871 -5.45431
head 5.28334 1.38442 -2.18959
rclavicle -2.68856e-014 3.4191e-014
rhumerus -35.0518 -6.74543 -78.8865
rradius 30.2037
rwrist -7.61929
rhand -14.978 -0.583271
rfingers 7.12502
rthumb 11.1859 -30.2651
lclavicle -2.68856e-014 3.4191e-014
lhumerus -31.1486 0.145997 87.7198
lradius 34.0279
lwrist 10.7343
lhand -9.51096 0.311719
lfingers 7.12502
lthumb 16.4545 29.6339
rfemur -11.9606 0.979037 24.7041
rtibia 35.8648
rfoot -22.5108 -18.3386
rtoes -0.464698
lfemur -16.1317 3.18513 -14.5841
ltibia 41.724
lfoot -16.8005 15.4537
ltoes -13.161
110
root -1.26106 17.5523 -31.1533 4.2808 -0.890451 -2.89455
lowerback 4.38579 -1.84011 1.4534
upperback -1.04954 -2.24974 3.67495
thorax -3.45153 -1.11255 3.14488
lowerneck -15.867 3.03015 4.66007
upperneck 8.23553 3.76629 -5.68716
head 5.25597 1.58824 -2.19959
rclavicle -1.2921e-015 3.81667e-014
rhumerus -34.9356 -5.837 -78.8664
rradius 30.1624
rwrist -7.82545
rhand -15.017 -0.731442
rfingers 7.12502
rthumb 11.1483 -30.4153
lclavicle -1.2921e-015 3.81667e-014
lhumerus -31.1437 0.959032 87.8092
lradius 34.317
lwrist 10.783
lhand -9.44034 0.199325
lfingers 7.12502
lthumb 16.5225 29.5159
rfemur -11.819 0.841215 25.0065
rtibia 35.7871
rfoot -22.5069 -18.278
rtoes -0.40832
lfemur -16.8377 3.56934 -14.2683
ltibia 43.1208
lfoot -16.5048 15.2657
ltoes -13.4766
111
root -1.27606 17.543 -31.1426 4.22895 -0.849878 -3.10946
lowerback 4.61378 -2.04185 1.5937
upperback -1.0261 -2.49464 3.92921
thorax -3.54073 -1.23461 3.35777
lowerneck -15.8418 3.28294 4.58164
upperneck 8.09822 4.14243 -5.88607
head 5.23224 1.75643 -2.21439
rclavicle 5.36719e-015 9.54166e-015
rhumerus -34.8607 -5.09748 -78.8217
rradius 30.1114
rwrist -7.98383
rhand -15.0388 -0.840236
rfingers 7.12502
rthumb 11.1273 -30.5252
lclavicle 5.36719e-015 9.54166e-015
lhumerus -31.1107 1.60595 87.9047
lradius 34.586
lwrist 10.8454
lhand -9.43201 0.0176976
lfingers 7.12502
lthumb 16.5306 29.3336
rfemur -11.6718 0.687702 25.2968
rtibia 35.704
rfoot -22.4937 -18.217
rtoes -0.433505
lfemur -17.6008 3.96227 -13.9612
ltibia 44.6008
lfoot -16.1209 15.054
ltoes -13.6837
112
root -1.29082 17.5348 -31.1314 4.1737 -0.80882 -3.32165
lowerback 4.85813 -2.14909 1.77495
upperback -0.996217 -2.61216 4.08881
thorax -3.64346 -1.29483 3.44183
lowerneck -15.8697 3.41247 4.57628
upperneck 7.99918 4.32406 -5.98353
head 5.2179 1.83831 -2.22685
rclavicle -3.08116e-015 9.54166e-015
rhumerus -34.8584 -4.72785 -78.7595
rradius 30.0594
rwrist -8.08659
rhand -15.0575 -0.91504
rfingers 7.12502
rthumb 11.1093 -30.601
lclavicle -3.08116e-015 9.54166e-015
lhumerus -31.0121 1.87771 88.0008
lradius 34.8275
lwrist 10.9778
lhand -9.49504 -0.15655
lfingers 7.12502
lthumb 16.4699 29.1644
rfemur -11.5185 0.529285 25.581
rtibia 35.6155
rfoot -22.4731 -18.1516
rtoes -0.519693
lfemur -18.4129 4.34668 -13.6564
ltibia 46.1415
lfoot -15.6563 14.8255
ltoes -13.827
113
root -1.30515 17.5271 -31.1192 4.11511 -0.762014 -3.51828
lowerback 5.10158 -2.1177 2.01069
upperback -0.975275 -2.54412 4.10228
thorax -3.77208 -1.26504 3.32932
lowerneck -15.9002 3.32323 4.6081
upperneck 7.958 4.17833 -5.85432
head 5.19937 1.7772 -2.20486
rclavicle 2.99668e-014 -1.43125e-014
rhumerus -35.017 -4.91889 -78.6685
rradius 30.0155
rwrist -8.10313
rhand -15.0998 -0.985168
rfingers 7.12502
rthumb 11.0685 -30.6733
lclavicle 2.99668e-014 -1.43125e-014
lhumerus -30.8597 1.58672 88.0932
lradius 35.0247
lwrist 11.2183
lhand -9.59103 -0.266388
lfingers 7.12502
lthumb 16.3774 29.0622
rfemur -11.3569 0.358032 25.8435
rtibia 35.5236
rfoot -22.4566 -18.074
rtoes -0.637325
lfemur -19.2617 4.70935 -13.3684
ltibia 47.7227
lfoot -15.1467 14.5914
ltoes -14.0061
114
root -1.31881 17.5204 -31.1057 4.05943 -0.707687 -3.7048
lowerback 5.33178 -1.99406 2.28684
upperback -0.944405 -2.35319 4.02267
thorax -3.89242 -1.17621 3.0853
lowerneck -15.9911 3.10822 4.70244
upperneck 7.96078 3.83716 -5.62134
head 5.19287 1.62871 -2.17807
rclavicle -8.00108e-015 3.97569e-015
rhumerus -35.2427 -5.5045 -78.5428
rradius 29.954
rwrist -8.04375
rhand -15.1478 -1.04431
rfingers 7.12502
rthumb 11.0222 -30.7349
lclavicle -8.00108e-015 3.97569e-015
lhumerus -30.6403 0.942921 88.1857
lradius 35.1833
lwrist 11.4754
lhand -9.74009 -0.37343
lfingers 7.12502
lthumb 16.2339 28.9669
rfemur -11.191 0.176422 26.0889
rtibia 35.4242
rfoot -22.449 -17.9793
rtoes -0.750379
lfemur -20.1383 5.04353 -13.0942
ltibia 49.3158
lfoot -14.6128 14.3805
ltoes -14.2576
115
root -1.33148 17.5142 -31.0907 4.0105 -0.660878 -3.89647
lowerback 5.54538 -1.85109 2.58471
upperback -0.908075 -2.13538 3.93075
thorax -3.99745 -1.07508 2.81176
lowerneck -16.1163 2.87181 4.79796
upperneck 7.99184 3.46384 -5.36627
head 5.1992 1.46558 -2.14719
rclavicle 3.37437e-014 -6.44062e-014
rhumerus -35.4713 -6.17976 -78.3845
rradius 29.8507
rwrist -7.92947
rhand -15.2151 -1.09535
rfingers 7.12502
rthumb 10.9573 -30.7894
lclavicle 3.37437e-014 -6.44062e-014
lhumerus -30.3878 0.255005 88.2762
lradius 35.3277
lwrist 11.7798
lhand -9.87618 -0.415277
lfingers 7.12502
lthumb 16.1029 28.9357
rfemur -11.0237 -0.00389331 26.332
rtibia 35.3142
rfoot -22.4449 -17.8678
rtoes -0.859967
lfemur -21.0361 5.35904 -12.8198
ltibia 50.8952
lfoot -14.0666 14.2315
ltoes -14.6042
